<svg xmlns="http://www.w3.org/2000/svg" viewBox="0 0 240 240" role="img" aria-labelledby="title">
  <title id="title">Alliance</title>
  <defs>
    <linearGradient id="gold" x1="0" y1="0" x2="1" y2="1">
      <stop offset="0" stop-color="#fff0a8"/><stop offset=".24" stop-color="#d9a23c"/><stop offset=".6" stop-color="#7c430f"/><stop offset="1" stop-color="#e8bb5b"/>
    </linearGradient>
    <linearGradient id="blue" x1="0" y1="0" x2="0" y2="1">
      <stop offset="0" stop-color="#163c65"/><stop offset="1" stop-color="#071a31"/>
    </linearGradient>
    <filter id="emboss" x="-10%" y="-10%" width="120%" height="120%">
      <feDropShadow dx="0" dy="2" stdDeviation="1.8" flood-color="#000" flood-opacity=".45"/>
    </filter>
  </defs>
  <path d="M120 18 148 34 177 30 184 58 209 73 198 101 211 129 190 149 187 181 157 188 120 220 83 188 53 181 50 149 29 129 42 101 31 73 56 58 63 30 92 34Z" fill="url(#blue)" stroke="url(#gold)" stroke-width="8" filter="url(#emboss)"/>
  <path d="M78 70 101 62 120 39 139 62 162 70 151 91 144 111 159 130 147 168 120 193 93 168 81 130 96 111 89 91Z" fill="none" stroke="url(#gold)" stroke-width="10" stroke-linejoin="round"/>
  <path d="M82 95 105 86 120 99 135 86 158 95 146 110 134 109 130 122 120 129 110 122 106 109 94 110Z" fill="url(#gold)"/>
  <path d="M103 128 114 136 120 154 126 136 137 128 132 157 120 176 108 157Z" fill="url(#gold)"/>
  <path d="M92 124c7 19 17 28 28 28s21-9 28-28" fill="none" stroke="#f2cf79" stroke-width="5" stroke-linecap="round"/>
</svg>
